<?xml version="1.0" encoding="UTF-8"?><svg id="a" xmlns="http://www.w3.org/2000/svg" viewBox="0 0 766.67 666.67"><defs><style>.b{fill:none;stroke:#000;stroke-linecap:round;stroke-linejoin:round;stroke-width:66.67px;}</style></defs><path class="b" d="M166.67,633.33c-36.82,0-66.67-29.85-66.67-66.67v-122.48c0-16.31,0-24.46-1.84-32.13-1.63-6.8-4.33-13.3-7.98-19.27-4.12-6.73-9.89-12.49-21.42-24.02l-35.42-35.42,35.42-35.42c11.53-11.53,17.3-17.3,21.42-24.02,3.66-5.97,6.35-12.47,7.98-19.27,1.84-7.67,1.84-15.83,1.84-32.13V100c0-36.82,29.85-66.67,66.67-66.67m433.33,600c36.82,0,66.67-29.85,66.67-66.67v-122.48c0-16.31,0-24.46,1.84-32.13,1.63-6.8,4.33-13.3,7.98-19.27,4.12-6.73,9.89-12.49,21.42-24.02l35.42-35.42-35.42-35.42c-11.53-11.53-17.3-17.3-21.42-24.02-3.65-5.97-6.35-12.47-7.98-19.27-1.84-7.67-1.84-15.83-1.84-32.13V100c0-36.82-29.85-66.67-66.67-66.67"/><polyline class="b" points="248.17 465.03 260.3 201.64 280.23 201.64 387.53 439.04 476.04 205.1 505.5 205.1 518.49 465.03"/></svg>