<?xml version="1.0" encoding="utf-8"?>
<!-- Generator: Adobe Illustrator 28.1.0, SVG Export Plug-In . SVG Version: 6.00 Build 0)  -->
<svg version="1.1" id="a" xmlns="http://www.w3.org/2000/svg" xmlns:xlink="http://www.w3.org/1999/xlink" x="0px" y="0px"
	 viewBox="0 0 700 666.7" style="enable-background:new 0 0 700 666.7;" xml:space="preserve">
<style type="text/css">
	.st0{fill:none;stroke:#FAF5EF;stroke-width:66.67;stroke-linecap:round;stroke-linejoin:round;}
</style>
<path class="st0" d="M166.7,633.3c-36.8,0-66.7-29.8-66.7-66.7V444.2c0-16.3,0-24.5-1.8-32.1c-1.6-6.8-4.3-13.3-8-19.3
	c-4.1-6.7-9.9-12.5-21.4-24l-35.4-35.4l35.4-35.4c11.5-11.5,17.3-17.3,21.4-24c3.7-6,6.3-12.5,8-19.3c1.8-7.7,1.8-15.8,1.8-32.1V100
	c0-36.8,29.9-66.7,66.7-66.7 M533.3,633.3c36.8,0,66.7-29.8,66.7-66.7V444.2c0-16.3,0-24.5,1.8-32.1c1.6-6.8,4.3-13.3,8-19.3
	c4.1-6.7,9.9-12.5,21.4-24l35.4-35.4l-35.4-35.4c-11.5-11.5-17.3-17.3-21.4-24c-3.7-6-6.3-12.5-8-19.3c-1.8-7.7-1.8-15.8-1.8-32.1
	V100c0-36.8-29.8-66.7-66.7-66.7"/>
<polyline class="st0" points="214.8,465 227,201.6 246.9,201.6 354.2,439 442.7,205.1 472.2,205.1 485.2,465 "/>
</svg>
