<?xml version="1.0" encoding="utf-8"?>
<!-- Generator: Adobe Illustrator 28.1.0, SVG Export Plug-In . SVG Version: 6.00 Build 0)  -->
<svg version="1.1" xmlns="http://www.w3.org/2000/svg" xmlns:xlink="http://www.w3.org/1999/xlink" x="0px" y="0px"
	 viewBox="0 0 800 800" style="enable-background:new 0 0 800 800;" xml:space="preserve">
<style type="text/css">
	.st0{fill:#FAF5EF;}
	.st1{fill:#28231D;}
</style>
<g id="Layer_1">
	<path class="st0" d="M679.2,779H115.3c-54.9,0-99.8-44.9-99.8-99.8V115.3c0-54.9,44.9-99.8,99.8-99.8h563.9
		c54.9,0,99.8,44.9,99.8,99.8v563.9C779,734,734,779,679.2,779z"/>
	<path class="st1" d="M580.6,680.7c-15.5,0-28.1-12.6-28.1-28.1c0-15.5,12.6-28.1,28.1-28.1c15.5,0,28.1-12.6,28.1-28.1V493.1
		c0-14.9,0-24,2.3-33.7c2.1-8.6,5.5-16.8,10.1-24.4c5.2-8.5,11.6-14.9,22.2-25.5l10-10l-10-10c-10.6-10.6-16.9-16.9-22.2-25.4
		c-4.6-7.6-8-15.8-10.1-24.4c-2.3-9.7-2.3-18.7-2.3-33.7V202.9c0-15.5-12.6-28.1-28.1-28.1c-15.5,0-28.1-12.6-28.1-28.1
		s12.6-28.1,28.1-28.1c46.5,0,84.3,37.8,84.3,84.3v103.3c0,10.8,0,17.3,0.8,20.5c0.7,2.9,1.8,5.6,3.4,8.1c1.7,2.8,6.3,7.4,14,15.1
		l29.9,29.9c11,11,11,28.8,0,39.7L683,449.4c-7.6,7.6-12.2,12.2-14,15.1c-1.5,2.5-2.7,5.3-3.4,8.1c-0.8,3.2-0.8,9.7-0.8,20.5v103.3
		C664.9,642.9,627.1,680.7,580.6,680.7z M215.2,680.7c-46.5,0-84.3-37.8-84.3-84.3V493.1c0-10.8,0-17.3-0.8-20.5
		c-0.7-2.9-1.8-5.6-3.4-8.1c-1.7-2.8-6.3-7.4-14-15.1l-29.9-29.9c-5.3-5.3-8.2-12.4-8.2-19.9c0-7.5,3-14.6,8.2-19.9l29.9-29.9
		c7.6-7.6,12.2-12.2,14-15.1c1.5-2.5,2.7-5.3,3.4-8.1c0.8-3.2,0.8-9.7,0.8-20.5V202.9c0-46.5,37.8-84.3,84.3-84.3
		c15.5,0,28.1,12.6,28.1,28.1s-12.6,28.1-28.1,28.1c-15.5,0-28.1,12.6-28.1,28.1v103.3c0,14.9,0,23.9-2.3,33.7
		c-2.1,8.6-5.5,16.8-10.1,24.4c-5.2,8.5-11.6,14.9-22.2,25.4l-10,10l10,10c10.6,10.6,16.9,16.9,22.2,25.4c4.6,7.6,8,15.8,10.1,24.4
		c2.3,9.7,2.3,18.7,2.3,33.7v103.3c0,15.5,12.6,28.1,28.1,28.1c15.5,0,28.1,12.6,28.1,28.1C243.3,668.1,230.7,680.7,215.2,680.7z"/>
	<path class="st1" d="M511.8,538.8c-14.9,0-27.3-11.7-28-26.7l-7.1-142.7l-48.9,129.3c-4,10.6-14,17.8-25.4,18.1
		c-11.3,0.4-21.8-6.2-26.5-16.5l-57.4-127.1L312,512c-0.7,15.5-13.9,27.5-29.4,26.8c-15.5-0.7-27.5-13.9-26.8-29.4l10.2-222.1
		c0.7-15,13.1-26.8,28.1-26.8H311c11,0,21.1,6.5,25.6,16.5l62.6,138.4l50.6-133.9c4.1-10.9,14.6-18.2,26.3-18.2h24.8
		c15,0,27.3,11.7,28.1,26.7l11,219.2c0.8,15.5-11.2,28.7-26.7,29.5C512.8,538.8,512.3,538.8,511.8,538.8z"/>
</g>
<g id="Layer_2">
</g>
</svg>
